<?xml version="1.0" standalone="no"?>
<!DOCTYPE svg PUBLIC "-//W3C//DTD SVG 20010904//EN"
 "http://www.w3.org/TR/2001/REC-SVG-20010904/DTD/svg10.dtd">
<svg version="1.0" xmlns="http://www.w3.org/2000/svg"
 width="192.000000pt" height="192.000000pt" viewBox="0 0 192.000000 192.000000"
 preserveAspectRatio="xMidYMid meet">

<g transform="translate(0.000000,192.000000) scale(0.100000,-0.100000)"
fill="#000000" stroke="none">
<path d="M350 1570 c0 -20 7 -20 635 -20 628 0 635 0 635 20 0 20 -7 20 -635
20 -628 0 -635 0 -635 -20z"/>
<path d="M392 973 l3 -488 110 0 110 0 1 278 c1 153 4 280 6 282 2 2 21 -116
42 -263 20 -147 40 -275 42 -284 5 -15 17 -18 79 -18 41 0 76 3 78 8 3 4 22
138 43 297 l39 290 5 -295 5 -295 135 0 135 0 3 190 3 190 48 -190 47 -190
133 -3 c105 -2 132 0 128 10 -2 7 -39 128 -80 268 l-76 255 69 214 c39 118 70
218 70 223 0 5 -53 7 -117 6 l-118 -3 -50 -170 -50 -170 -5 170 -5 170 -191 3
-191 2 -23 -186 c-21 -171 -37 -263 -39 -223 -1 23 -50 360 -56 387 -5 22 -7
22 -170 22 l-165 0 2 -487z"/>
<path d="M350 375 l0 -25 635 0 635 0 0 25 0 25 -635 0 -635 0 0 -25z"/>
</g>
</svg>
